<mxfile host="app.diagrams.net" modified="2022-12-29T04:57:13.065Z" agent="5.0 (Windows NT 10.0; Win64; x64) AppleWebKit/537.36 (KHTML, like Gecko) Chrome/107.0.0.0 Safari/537.36" version="20.6.0" etag="9Is2dMV0Yk7A7mX-GGc2" type="github" pages="2">
  <diagram id="eBlviBqeZyTuikxmEPvk" name="Corp_for_findcase">
    <mxGraphModel dx="2349" dy="846" grid="1" gridSize="10" guides="1" tooltips="1" connect="1" arrows="1" fold="1" page="1" pageScale="1" pageWidth="1920" pageHeight="1200" math="0" shadow="0">
      <root>
        <mxCell id="0" />
        <mxCell id="1" parent="0" />
        <mxCell id="nK_DFVyRdio7D8olwncM-1" value="382011637" style="rounded=0;whiteSpace=wrap;html=1;" vertex="1" parent="1">
          <mxGeometry x="620" y="150" width="120" height="60" as="geometry" />
        </mxCell>
        <mxCell id="nK_DFVyRdio7D8olwncM-3" style="edgeStyle=orthogonalEdgeStyle;rounded=0;orthogonalLoop=1;jettySize=auto;html=1;entryX=0.5;entryY=1;entryDx=0;entryDy=0;" edge="1" parent="1" source="nK_DFVyRdio7D8olwncM-2" target="nK_DFVyRdio7D8olwncM-1">
          <mxGeometry relative="1" as="geometry" />
        </mxCell>
        <mxCell id="nK_DFVyRdio7D8olwncM-2" value="381085058" style="rounded=0;whiteSpace=wrap;html=1;" vertex="1" parent="1">
          <mxGeometry x="620" y="280" width="120" height="60" as="geometry" />
        </mxCell>
        <mxCell id="nK_DFVyRdio7D8olwncM-4" value="381086674" style="rounded=0;whiteSpace=wrap;html=1;" vertex="1" parent="1">
          <mxGeometry x="410" y="430" width="120" height="60" as="geometry" />
        </mxCell>
        <mxCell id="nK_DFVyRdio7D8olwncM-5" value="382997468" style="rounded=0;whiteSpace=wrap;html=1;" vertex="1" parent="1">
          <mxGeometry x="580" y="430" width="120" height="60" as="geometry" />
        </mxCell>
        <mxCell id="nK_DFVyRdio7D8olwncM-6" value="381012026" style="rounded=0;whiteSpace=wrap;html=1;" vertex="1" parent="1">
          <mxGeometry x="750" y="430" width="120" height="60" as="geometry" />
        </mxCell>
        <mxCell id="nK_DFVyRdio7D8olwncM-7" value="381040232" style="rounded=0;whiteSpace=wrap;html=1;" vertex="1" parent="1">
          <mxGeometry x="910" y="430" width="120" height="60" as="geometry" />
        </mxCell>
        <mxCell id="nK_DFVyRdio7D8olwncM-8" value="382013729" style="rounded=0;whiteSpace=wrap;html=1;" vertex="1" parent="1">
          <mxGeometry x="410" y="540" width="120" height="60" as="geometry" />
        </mxCell>
        <mxCell id="nK_DFVyRdio7D8olwncM-18" value="" style="edgeStyle=orthogonalEdgeStyle;rounded=0;orthogonalLoop=1;jettySize=auto;html=1;" edge="1" parent="1" source="nK_DFVyRdio7D8olwncM-9" target="nK_DFVyRdio7D8olwncM-13">
          <mxGeometry relative="1" as="geometry" />
        </mxCell>
        <mxCell id="nK_DFVyRdio7D8olwncM-19" value="" style="edgeStyle=orthogonalEdgeStyle;rounded=0;orthogonalLoop=1;jettySize=auto;html=1;" edge="1" parent="1" source="nK_DFVyRdio7D8olwncM-9" target="nK_DFVyRdio7D8olwncM-5">
          <mxGeometry relative="1" as="geometry" />
        </mxCell>
        <mxCell id="nK_DFVyRdio7D8olwncM-9" value="381137651" style="rounded=0;whiteSpace=wrap;html=1;" vertex="1" parent="1">
          <mxGeometry x="580" y="540" width="120" height="60" as="geometry" />
        </mxCell>
        <mxCell id="nK_DFVyRdio7D8olwncM-10" value="381116921" style="rounded=0;whiteSpace=wrap;html=1;" vertex="1" parent="1">
          <mxGeometry x="750" y="540" width="120" height="60" as="geometry" />
        </mxCell>
        <mxCell id="nK_DFVyRdio7D8olwncM-11" value="381042790" style="rounded=0;whiteSpace=wrap;html=1;fillColor=#f8cecc;strokeColor=#b85450;" vertex="1" parent="1">
          <mxGeometry x="910" y="540" width="120" height="60" as="geometry" />
        </mxCell>
        <mxCell id="nK_DFVyRdio7D8olwncM-12" value="381126994" style="rounded=0;whiteSpace=wrap;html=1;" vertex="1" parent="1">
          <mxGeometry x="410" y="640" width="120" height="60" as="geometry" />
        </mxCell>
        <mxCell id="nK_DFVyRdio7D8olwncM-13" value="382687299" style="rounded=0;whiteSpace=wrap;html=1;" vertex="1" parent="1">
          <mxGeometry x="580" y="640" width="120" height="60" as="geometry" />
        </mxCell>
        <mxCell id="nK_DFVyRdio7D8olwncM-15" value="" style="endArrow=classic;startArrow=classic;html=1;rounded=0;entryX=0.5;entryY=1;entryDx=0;entryDy=0;exitX=0.5;exitY=0;exitDx=0;exitDy=0;" edge="1" parent="1" source="nK_DFVyRdio7D8olwncM-12" target="nK_DFVyRdio7D8olwncM-8">
          <mxGeometry width="50" height="50" relative="1" as="geometry">
            <mxPoint x="450" y="660" as="sourcePoint" />
            <mxPoint x="500" y="610" as="targetPoint" />
          </mxGeometry>
        </mxCell>
        <mxCell id="nK_DFVyRdio7D8olwncM-16" value="" style="endArrow=classic;startArrow=classic;html=1;rounded=0;entryX=0.5;entryY=1;entryDx=0;entryDy=0;exitX=0.5;exitY=0;exitDx=0;exitDy=0;" edge="1" parent="1" source="nK_DFVyRdio7D8olwncM-8" target="nK_DFVyRdio7D8olwncM-4">
          <mxGeometry width="50" height="50" relative="1" as="geometry">
            <mxPoint x="340" y="560" as="sourcePoint" />
            <mxPoint x="390" y="510" as="targetPoint" />
          </mxGeometry>
        </mxCell>
        <mxCell id="nK_DFVyRdio7D8olwncM-17" value="" style="endArrow=classic;startArrow=classic;html=1;rounded=0;exitX=0.5;exitY=0;exitDx=0;exitDy=0;entryX=0.25;entryY=1;entryDx=0;entryDy=0;" edge="1" parent="1" source="nK_DFVyRdio7D8olwncM-4" target="nK_DFVyRdio7D8olwncM-2">
          <mxGeometry width="50" height="50" relative="1" as="geometry">
            <mxPoint x="480" y="390" as="sourcePoint" />
            <mxPoint x="530" y="340" as="targetPoint" />
          </mxGeometry>
        </mxCell>
        <mxCell id="nK_DFVyRdio7D8olwncM-20" value="" style="endArrow=classic;startArrow=classic;html=1;rounded=0;exitX=0.5;exitY=0;exitDx=0;exitDy=0;" edge="1" parent="1" source="nK_DFVyRdio7D8olwncM-5">
          <mxGeometry width="50" height="50" relative="1" as="geometry">
            <mxPoint x="720" y="410" as="sourcePoint" />
            <mxPoint x="680" y="340" as="targetPoint" />
          </mxGeometry>
        </mxCell>
        <mxCell id="nK_DFVyRdio7D8olwncM-23" value="" style="endArrow=classic;startArrow=classic;html=1;rounded=0;entryX=0.682;entryY=1.017;entryDx=0;entryDy=0;entryPerimeter=0;exitX=0.5;exitY=0;exitDx=0;exitDy=0;" edge="1" parent="1" source="nK_DFVyRdio7D8olwncM-6" target="nK_DFVyRdio7D8olwncM-2">
          <mxGeometry width="50" height="50" relative="1" as="geometry">
            <mxPoint x="830" y="410" as="sourcePoint" />
            <mxPoint x="880" y="360" as="targetPoint" />
          </mxGeometry>
        </mxCell>
        <mxCell id="nK_DFVyRdio7D8olwncM-24" value="" style="endArrow=classic;startArrow=classic;html=1;rounded=0;entryX=0.5;entryY=1;entryDx=0;entryDy=0;" edge="1" parent="1" source="nK_DFVyRdio7D8olwncM-10" target="nK_DFVyRdio7D8olwncM-6">
          <mxGeometry width="50" height="50" relative="1" as="geometry">
            <mxPoint x="770" y="690" as="sourcePoint" />
            <mxPoint x="820" y="640" as="targetPoint" />
          </mxGeometry>
        </mxCell>
        <mxCell id="nK_DFVyRdio7D8olwncM-25" value="" style="endArrow=classic;startArrow=classic;html=1;rounded=0;entryX=0.5;entryY=1;entryDx=0;entryDy=0;exitX=0.5;exitY=0;exitDx=0;exitDy=0;" edge="1" parent="1" source="nK_DFVyRdio7D8olwncM-11" target="nK_DFVyRdio7D8olwncM-7">
          <mxGeometry width="50" height="50" relative="1" as="geometry">
            <mxPoint x="920" y="700" as="sourcePoint" />
            <mxPoint x="970" y="650" as="targetPoint" />
          </mxGeometry>
        </mxCell>
        <mxCell id="nK_DFVyRdio7D8olwncM-26" value="" style="endArrow=classic;startArrow=classic;html=1;rounded=0;entryX=1;entryY=0.75;entryDx=0;entryDy=0;exitX=0.5;exitY=0;exitDx=0;exitDy=0;" edge="1" parent="1" source="nK_DFVyRdio7D8olwncM-7" target="nK_DFVyRdio7D8olwncM-2">
          <mxGeometry width="50" height="50" relative="1" as="geometry">
            <mxPoint x="920" y="390" as="sourcePoint" />
            <mxPoint x="970" y="340" as="targetPoint" />
          </mxGeometry>
        </mxCell>
      </root>
    </mxGraphModel>
  </diagram>
  <diagram id="wboghnndJe_pZULOKbnJ" name="MinUD-L0=0">
    <mxGraphModel dx="2349" dy="846" grid="1" gridSize="10" guides="1" tooltips="1" connect="1" arrows="1" fold="1" page="1" pageScale="1" pageWidth="1920" pageHeight="1200" math="0" shadow="0">
      <root>
        <mxCell id="0" />
        <mxCell id="1" parent="0" />
        <mxCell id="wzC1fGU2Mc0wG2vZjvPm-1" value="7182311876" style="rounded=0;whiteSpace=wrap;html=1;fillColor=#d5e8d4;strokeColor=#82b366;" vertex="1" parent="1">
          <mxGeometry x="490" y="80" width="120" height="60" as="geometry" />
        </mxCell>
        <mxCell id="wzC1fGU2Mc0wG2vZjvPm-3" value="348069373" style="rounded=0;whiteSpace=wrap;html=1;" vertex="1" parent="1">
          <mxGeometry x="490" y="180" width="120" height="60" as="geometry" />
        </mxCell>
        <mxCell id="wzC1fGU2Mc0wG2vZjvPm-4" value="241077411" style="rounded=0;whiteSpace=wrap;html=1;" vertex="1" parent="1">
          <mxGeometry x="310" y="300" width="120" height="60" as="geometry" />
        </mxCell>
        <mxCell id="wzC1fGU2Mc0wG2vZjvPm-6" value="11000088" style="rounded=0;whiteSpace=wrap;html=1;" vertex="1" parent="1">
          <mxGeometry x="490" y="300" width="120" height="60" as="geometry" />
        </mxCell>
        <mxCell id="wzC1fGU2Mc0wG2vZjvPm-7" value="12851563" style="rounded=0;whiteSpace=wrap;html=1;" vertex="1" parent="1">
          <mxGeometry x="910" y="300" width="120" height="60" as="geometry" />
        </mxCell>
        <mxCell id="wzC1fGU2Mc0wG2vZjvPm-8" value="12043939" style="rounded=0;whiteSpace=wrap;html=1;" vertex="1" parent="1">
          <mxGeometry x="410" y="430" width="120" height="60" as="geometry" />
        </mxCell>
        <mxCell id="wzC1fGU2Mc0wG2vZjvPm-9" value="11010245" style="rounded=0;whiteSpace=wrap;html=1;" vertex="1" parent="1">
          <mxGeometry x="580" y="430" width="120" height="60" as="geometry" />
        </mxCell>
        <mxCell id="wzC1fGU2Mc0wG2vZjvPm-12" value="83257768" style="rounded=0;whiteSpace=wrap;html=1;" vertex="1" parent="1">
          <mxGeometry x="780" y="430" width="120" height="60" as="geometry" />
        </mxCell>
        <mxCell id="wzC1fGU2Mc0wG2vZjvPm-14" value="442469881" style="rounded=0;whiteSpace=wrap;html=1;" vertex="1" parent="1">
          <mxGeometry x="930" y="430" width="120" height="60" as="geometry" />
        </mxCell>
        <mxCell id="wzC1fGU2Mc0wG2vZjvPm-15" value="461081908" style="rounded=0;whiteSpace=wrap;html=1;" vertex="1" parent="1">
          <mxGeometry x="1080" y="430" width="120" height="60" as="geometry" />
        </mxCell>
        <mxCell id="V8IGM1haX_PLqdn8gnAF-1" value="" style="endArrow=classic;startArrow=classic;html=1;rounded=0;exitX=0.5;exitY=0;exitDx=0;exitDy=0;entryX=0.5;entryY=1;entryDx=0;entryDy=0;" edge="1" parent="1" target="wzC1fGU2Mc0wG2vZjvPm-6">
          <mxGeometry width="50" height="50" relative="1" as="geometry">
            <mxPoint x="470" y="430" as="sourcePoint" />
            <mxPoint x="650" y="340" as="targetPoint" />
          </mxGeometry>
        </mxCell>
        <mxCell id="V8IGM1haX_PLqdn8gnAF-2" value="" style="endArrow=classic;startArrow=classic;html=1;rounded=0;exitX=0.5;exitY=0;exitDx=0;exitDy=0;entryX=0.5;entryY=1;entryDx=0;entryDy=0;" edge="1" parent="1" source="wzC1fGU2Mc0wG2vZjvPm-9" target="wzC1fGU2Mc0wG2vZjvPm-6">
          <mxGeometry width="50" height="50" relative="1" as="geometry">
            <mxPoint x="480" y="440" as="sourcePoint" />
            <mxPoint x="660" y="350" as="targetPoint" />
          </mxGeometry>
        </mxCell>
        <mxCell id="V8IGM1haX_PLqdn8gnAF-3" value="" style="endArrow=classic;startArrow=classic;html=1;rounded=0;exitX=0.5;exitY=0;exitDx=0;exitDy=0;entryX=0.5;entryY=1;entryDx=0;entryDy=0;" edge="1" parent="1" source="wzC1fGU2Mc0wG2vZjvPm-4" target="wzC1fGU2Mc0wG2vZjvPm-3">
          <mxGeometry width="50" height="50" relative="1" as="geometry">
            <mxPoint x="490" y="450" as="sourcePoint" />
            <mxPoint x="670" y="360" as="targetPoint" />
          </mxGeometry>
        </mxCell>
        <mxCell id="V8IGM1haX_PLqdn8gnAF-4" value="" style="endArrow=classic;startArrow=classic;html=1;rounded=0;exitX=0.5;exitY=0;exitDx=0;exitDy=0;entryX=0.5;entryY=1;entryDx=0;entryDy=0;" edge="1" parent="1" source="wzC1fGU2Mc0wG2vZjvPm-6" target="wzC1fGU2Mc0wG2vZjvPm-3">
          <mxGeometry width="50" height="50" relative="1" as="geometry">
            <mxPoint x="500" y="460" as="sourcePoint" />
            <mxPoint x="680" y="370" as="targetPoint" />
          </mxGeometry>
        </mxCell>
        <mxCell id="V8IGM1haX_PLqdn8gnAF-5" value="" style="endArrow=classic;startArrow=classic;html=1;rounded=0;exitX=0.5;exitY=0;exitDx=0;exitDy=0;entryX=0.5;entryY=1;entryDx=0;entryDy=0;" edge="1" parent="1" source="wzC1fGU2Mc0wG2vZjvPm-12" target="wzC1fGU2Mc0wG2vZjvPm-7">
          <mxGeometry width="50" height="50" relative="1" as="geometry">
            <mxPoint x="510" y="470" as="sourcePoint" />
            <mxPoint x="690" y="380" as="targetPoint" />
          </mxGeometry>
        </mxCell>
        <mxCell id="V8IGM1haX_PLqdn8gnAF-6" value="" style="endArrow=classic;startArrow=classic;html=1;rounded=0;exitX=0.5;exitY=0;exitDx=0;exitDy=0;" edge="1" parent="1" source="wzC1fGU2Mc0wG2vZjvPm-14">
          <mxGeometry width="50" height="50" relative="1" as="geometry">
            <mxPoint x="520" y="480" as="sourcePoint" />
            <mxPoint x="970" y="360" as="targetPoint" />
          </mxGeometry>
        </mxCell>
        <mxCell id="V8IGM1haX_PLqdn8gnAF-7" value="" style="endArrow=classic;startArrow=classic;html=1;rounded=0;exitX=0.5;exitY=0;exitDx=0;exitDy=0;entryX=0.558;entryY=1.002;entryDx=0;entryDy=0;entryPerimeter=0;" edge="1" parent="1" source="wzC1fGU2Mc0wG2vZjvPm-15" target="wzC1fGU2Mc0wG2vZjvPm-7">
          <mxGeometry width="50" height="50" relative="1" as="geometry">
            <mxPoint x="530" y="490" as="sourcePoint" />
            <mxPoint x="710" y="400" as="targetPoint" />
          </mxGeometry>
        </mxCell>
        <mxCell id="V8IGM1haX_PLqdn8gnAF-8" value="" style="endArrow=classic;startArrow=classic;html=1;rounded=0;exitX=0.611;exitY=1.017;exitDx=0;exitDy=0;entryX=0.5;entryY=0;entryDx=0;entryDy=0;exitPerimeter=0;" edge="1" parent="1" source="wzC1fGU2Mc0wG2vZjvPm-3" target="wzC1fGU2Mc0wG2vZjvPm-7">
          <mxGeometry width="50" height="50" relative="1" as="geometry">
            <mxPoint x="540" y="500" as="sourcePoint" />
            <mxPoint x="720" y="410" as="targetPoint" />
          </mxGeometry>
        </mxCell>
        <mxCell id="V8IGM1haX_PLqdn8gnAF-9" value="" style="endArrow=classic;startArrow=classic;html=1;rounded=0;exitX=0.5;exitY=1;exitDx=0;exitDy=0;" edge="1" parent="1" source="wzC1fGU2Mc0wG2vZjvPm-1" target="wzC1fGU2Mc0wG2vZjvPm-3">
          <mxGeometry width="50" height="50" relative="1" as="geometry">
            <mxPoint x="550" y="510" as="sourcePoint" />
            <mxPoint x="730" y="420" as="targetPoint" />
          </mxGeometry>
        </mxCell>
        <mxCell id="V8IGM1haX_PLqdn8gnAF-11" value="100" style="text;html=1;strokeColor=#82b366;fillColor=#d5e8d4;align=center;verticalAlign=middle;whiteSpace=wrap;rounded=0;" vertex="1" parent="1">
          <mxGeometry x="380" y="340" width="50" height="20" as="geometry" />
        </mxCell>
        <mxCell id="V8IGM1haX_PLqdn8gnAF-13" value="100" style="text;html=1;strokeColor=#82b366;fillColor=#d5e8d4;align=center;verticalAlign=middle;whiteSpace=wrap;rounded=0;" vertex="1" parent="1">
          <mxGeometry x="480" y="470" width="50" height="20" as="geometry" />
        </mxCell>
        <mxCell id="V8IGM1haX_PLqdn8gnAF-14" value="100" style="text;html=1;strokeColor=#82b366;fillColor=#d5e8d4;align=center;verticalAlign=middle;whiteSpace=wrap;rounded=0;" vertex="1" parent="1">
          <mxGeometry x="560" y="340" width="50" height="20" as="geometry" />
        </mxCell>
        <mxCell id="V8IGM1haX_PLqdn8gnAF-15" value="100" style="text;html=1;strokeColor=#82b366;fillColor=#d5e8d4;align=center;verticalAlign=middle;whiteSpace=wrap;rounded=0;" vertex="1" parent="1">
          <mxGeometry x="650" y="470" width="50" height="20" as="geometry" />
        </mxCell>
        <mxCell id="V8IGM1haX_PLqdn8gnAF-16" value="100" style="text;html=1;strokeColor=#82b366;fillColor=#d5e8d4;align=center;verticalAlign=middle;whiteSpace=wrap;rounded=0;" vertex="1" parent="1">
          <mxGeometry x="850" y="470" width="50" height="20" as="geometry" />
        </mxCell>
        <mxCell id="V8IGM1haX_PLqdn8gnAF-17" value="100" style="text;html=1;strokeColor=#82b366;fillColor=#d5e8d4;align=center;verticalAlign=middle;whiteSpace=wrap;rounded=0;" vertex="1" parent="1">
          <mxGeometry x="980" y="340" width="50" height="20" as="geometry" />
        </mxCell>
        <mxCell id="V8IGM1haX_PLqdn8gnAF-18" value="100" style="text;html=1;strokeColor=#82b366;fillColor=#d5e8d4;align=center;verticalAlign=middle;whiteSpace=wrap;rounded=0;" vertex="1" parent="1">
          <mxGeometry x="1000" y="470" width="50" height="20" as="geometry" />
        </mxCell>
        <mxCell id="V8IGM1haX_PLqdn8gnAF-19" value="100" style="text;html=1;strokeColor=#82b366;fillColor=#d5e8d4;align=center;verticalAlign=middle;whiteSpace=wrap;rounded=0;" vertex="1" parent="1">
          <mxGeometry x="1150" y="470" width="50" height="20" as="geometry" />
        </mxCell>
      </root>
    </mxGraphModel>
  </diagram>
</mxfile>
